<svg width="252" height="197" viewBox="0 0 252 197" fill="none" xmlns="http://www.w3.org/2000/svg">
<g clip-path="url(#clip0_4779_10079)">
<path d="M239.831 180.258L245.026 180.132C247.55 176.646 249.748 172.222 250.965 166.749L246.896 166.46L251.31 164.925C251.746 162.415 252.018 159.724 252 156.762C252 156.762 244.735 157.358 237.325 161.151L236.962 164.6L236.271 161.729C231.803 164.203 227.463 167.905 224.666 173.378L225.973 178.94L223.703 175.382C222.777 177.658 222.105 180.186 221.796 183.058C221.596 188.566 221.796 191.889 221.796 191.889H230.278C230.278 191.889 237.706 189.18 243.881 181.559L239.831 180.258Z" fill="#9CBEC1"/>
<path d="M223.467 185.604C223.122 182.372 222.123 179.681 220.779 177.477L219.526 180.096L219.925 176.285C217.31 172.727 213.714 170.488 210.39 169.115L210.154 171.463L209.5 168.772C205.414 167.237 202.018 166.948 202.018 166.948C201.981 171.102 202.708 174.57 203.797 177.531L205.959 178.218L204.124 178.398C205.813 182.498 208.283 185.496 210.645 187.573L214.895 187.808L212.134 188.819C215.022 191.022 217.419 191.889 217.419 191.889H223.449C223.467 191.889 223.612 189.505 223.467 185.604Z" fill="#9DCDFE"/>
<path opacity="0.42" d="M208.374 173.323C207.048 172.077 204.27 169.169 204.27 169.169C204.27 169.169 207.557 171.319 208.847 172.547C219.835 182.877 222.123 191.383 222.232 191.763L221.796 191.889H221.324C221.033 190.842 218.4 182.823 208.374 173.323Z" fill="white"/>
<path opacity="0.21" d="M224.902 191.889H223.939C224.757 189.126 229.842 174.046 245.298 161.855C246.587 160.826 249.639 159.2 249.639 159.2C249.639 159.2 247.241 161.494 246.006 162.451C231.077 174.172 225.919 188.602 224.902 191.889Z" fill="white"/>
<path d="M234.582 191.582L233.22 193.262V193.28C232.258 194.454 231.259 195.627 230.205 196.765C230.133 196.838 230.06 196.928 229.987 197H24.2463C23.9557 196.187 23.6833 195.339 23.4108 194.49C23.1929 193.785 22.9749 193.081 22.7752 192.341C22.7025 192.088 22.6299 191.835 22.5754 191.582H234.582Z" fill="#C9893B"/>
<path d="M117.836 87.1581C117.836 82.7876 121.396 79.2478 125.791 79.2478C130.186 79.2478 133.746 82.7876 133.746 87.1581C133.746 91.5287 130.186 95.0685 125.791 95.0685C121.396 95.0685 117.836 91.5287 117.836 87.1581Z" fill="#8071F2"/>
<path d="M134.527 113.219C134.527 113.219 124.574 115.206 119.271 123.549C113.967 131.911 102.471 153.999 102.471 153.999L111.534 170.632L126.844 150.838L133.746 187.916L143.699 193.135L196.242 192.341C196.242 192.341 189.722 129.834 188.741 124.019C187.742 118.204 181.785 110.51 157.502 111.828L134.527 113.219Z" fill="url(#paint0_linear_4779_10079)"/>
<path d="M120.106 82.1736C120.106 82.1736 107.211 82.8238 106.448 71.7529C105.722 61.2058 117.672 61.0071 117.672 61.0071C117.672 61.0071 118.054 54.5777 127.97 54.1804C127.97 54.1804 131.73 51.6339 136.47 50.8934C148.33 49.0332 155.341 52.9523 158.737 58.876C162.914 66.1723 157.484 73.9743 157.484 73.9743C157.484 73.9743 161.698 78.9047 160.39 87.5375C158.319 101.155 149.22 104.333 149.22 104.333L120.106 82.1736Z" fill="#0B2E4E"/>
<path d="M119.816 82.1557C119.816 82.1557 121.795 101.48 133.51 102.907C133.51 102.907 135.726 107.855 134.945 113.002C134.945 113.002 131.675 123.116 141.828 124.091C151.981 125.085 157.393 111.901 157.393 111.901C157.393 111.901 146.351 111.576 147.023 89.3978L147.604 78.5437C147.604 78.5437 133.873 82.0293 124.392 73.4688C124.374 73.4868 124.738 80.1691 119.816 82.1557Z" fill="#FABB85"/>
<path d="M146.659 90.1381C146.242 89.9575 145.769 90.1742 145.588 90.5896C145.497 90.8244 145.261 91.2578 144.916 91.8177C144.353 92.7568 143.644 93.6598 142.809 94.5267C140.466 96.9829 137.56 98.4458 133.982 98.4458C133.528 98.4458 133.165 98.807 133.165 99.2585C133.165 99.71 133.528 100.071 133.982 100.071C138.05 100.071 141.338 98.4096 143.989 95.6284C144.916 94.6712 145.679 93.6418 146.296 92.6123C146.677 91.9983 146.932 91.4746 147.059 91.1856C147.24 90.7883 147.059 90.3187 146.659 90.1381Z" fill="#2B3E75"/>
<path d="M130.949 52.7716C152.489 54.993 151.218 75.2384 151.218 75.2384L150.909 79.2658L147.513 76.7013C147.513 76.7013 149.402 63.7883 138.069 57.4853C135.163 55.878 131.403 54.686 126.536 54.2706C126.536 54.2706 128.751 52.5368 130.949 52.7716Z" fill="#8071F2"/>
<path d="M129.714 99.2404C129.714 98.3193 130.64 97.5789 131.784 97.5789C132.929 97.5789 133.855 98.3193 133.855 99.2404C133.855 100.161 132.929 100.902 131.784 100.902C130.64 100.902 129.714 100.161 129.714 99.2404Z" fill="#8071F2"/>
<path d="M140.375 84.2866C140.375 79.916 143.935 76.3762 148.33 76.3762C152.725 76.3762 156.285 79.916 156.285 84.2866C156.285 88.6571 152.725 92.1969 148.33 92.1969C143.935 92.1969 140.375 88.6571 140.375 84.2866Z" fill="#8071F2"/>
<path d="M143.79 84.2866C143.79 81.5776 145.987 79.3923 148.712 79.3923C151.436 79.3923 153.634 81.5776 153.634 84.2866C153.634 86.9956 151.436 89.1809 148.712 89.1809C145.987 89.1809 143.79 86.9956 143.79 84.2866Z" fill="#928EEF"/>
<path d="M150.982 175.4C150.982 175.4 143.681 169.946 141.102 171.084C138.523 172.204 130.713 178.344 132.656 180.475C134.6 182.606 140.339 177.784 140.339 177.784C140.339 177.784 141.41 182.913 144.807 183.419C152.053 184.466 150.982 175.4 150.982 175.4Z" fill="#FABB85"/>
<path d="M182.548 115.874C182.548 115.874 191.029 119.179 201.073 140.038C211.117 160.898 215.984 174.298 208.81 182.534C206.758 184.882 201.037 186.092 193.881 186.615C175.973 187.934 149.184 184.954 149.184 184.954L149.075 172.005L188.596 167.724C188.596 167.724 177.88 153.475 174.901 132.381L182.548 115.874Z" fill="url(#paint1_linear_4779_10079)"/>
<path d="M193.027 186.652C189.377 187.013 185.708 187.175 182.039 187.248C178.37 187.32 174.702 187.302 171.033 187.175C163.695 186.904 156.376 186.561 149.057 185.785C148.621 185.731 148.294 185.369 148.276 184.936V184.918L148.094 171.969C148.094 171.481 148.439 171.084 148.911 171.03H148.93L158.81 169.91L168.69 168.88L188.469 166.84L187.887 168.176C186.925 166.822 186.107 165.449 185.29 164.058C184.491 162.65 183.728 161.241 183.02 159.796C181.603 156.925 180.314 153.981 179.224 150.965C178.933 150.224 178.679 149.466 178.425 148.689C178.189 147.931 177.916 147.172 177.698 146.396L177.045 144.084C176.808 143.325 176.663 142.531 176.463 141.754C176.3 140.977 176.082 140.201 175.937 139.424L175.501 137.076C175.21 135.505 175.065 133.916 174.847 132.345C175.174 133.898 175.446 135.469 175.828 137.022L176.391 139.334C176.572 140.111 176.827 140.869 177.026 141.628C177.263 142.386 177.444 143.163 177.717 143.903L178.479 146.161C178.734 146.919 179.042 147.642 179.315 148.382C179.605 149.123 179.86 149.863 180.168 150.604C181.331 153.547 182.711 156.419 184.2 159.2C184.945 160.591 185.744 161.963 186.562 163.3C187.397 164.636 188.269 165.973 189.195 167.201C189.467 167.58 189.395 168.104 189.032 168.375C188.904 168.465 188.759 168.519 188.614 168.537L168.853 170.777L158.973 171.896L149.093 172.908L149.928 171.969L149.965 184.918L149.184 184.069C156.431 184.827 163.714 185.586 171.015 186.038C174.665 186.254 178.316 186.453 181.967 186.597C185.708 186.706 189.359 186.742 193.027 186.652Z" fill="#C72E2E"/>
<path d="M142.173 100.595C137.487 103.412 133.455 102.762 133.401 102.816C133.455 102.816 133.474 102.871 133.528 102.871C133.528 102.871 134.073 104.153 134.527 106.085C138.595 104.388 142.173 100.595 142.173 100.595Z" fill="#E2A77A"/>
<path d="M167.673 192.864L60.7522 192.828C58.3185 192.828 55.3762 191.094 54.1957 188.999L27.6789 141.555C26.6074 139.659 27.5336 138.088 29.7313 138.088L91.7369 138.052C93.9345 138.052 96.6043 139.587 97.6941 141.483L122.395 184.34C122.994 185.387 124.483 186.272 125.7 186.29L164.513 186.543C166.274 186.561 167.764 187.988 167.854 189.74L167.982 192.557C167.982 192.738 167.855 192.864 167.673 192.864Z" fill="#2B3E75"/>
<path d="M216.711 38.8655H183.783C177.717 38.8655 172.813 43.7598 172.813 49.7738V60.1403C172.813 66.1724 177.735 71.0486 183.783 71.0486H186.289L180.386 83.3657L196.133 71.0486H216.711C222.777 71.0486 227.681 66.1543 227.681 60.1403V49.7738C227.699 43.7598 222.777 38.8655 216.711 38.8655Z" fill="#8071F2"/>
<path d="M210.536 54.8307C210.536 56.5284 211.916 57.9009 213.623 57.9009C215.33 57.9009 216.693 56.5284 216.693 54.8307C216.693 53.1331 215.312 51.7605 213.623 51.7605C211.916 51.7605 210.536 53.1331 210.536 54.8307Z" fill="white"/>
<path d="M197.386 54.8307C197.386 56.5284 198.767 57.9009 200.474 57.9009C202.181 57.9009 203.543 56.5284 203.543 54.8307C203.543 53.1331 202.163 51.7605 200.474 51.7605C198.767 51.7605 197.386 53.1331 197.386 54.8307Z" fill="white"/>
<path d="M183.801 54.8307C183.801 56.5284 185.181 57.9009 186.888 57.9009C188.596 57.9009 189.976 56.5284 189.976 54.8307C189.976 53.1331 188.596 51.7605 186.888 51.7605C185.181 51.7605 183.801 53.1331 183.801 54.8307Z" fill="white"/>
<path d="M47.5302 13.4368H86.3064C90.7561 13.4368 94.3522 17.0307 94.3522 21.4374V37.6193C94.3522 42.044 90.7379 45.6199 86.3064 45.6199H80.8759L85.7978 55.8781C86.034 56.3838 85.4346 56.8714 84.9805 56.5283L71.032 45.6199H47.5302C43.0804 45.6199 39.4843 42.026 39.4843 37.6193V21.4374C39.4662 17.0127 43.0804 13.4368 47.5302 13.4368Z" fill="#F8B31F"/>
<path d="M67.1817 23.3697C67.1817 23.9838 66.6913 24.4714 66.0738 24.4714H50.8539C50.2364 24.4714 49.746 23.9838 49.746 23.3697C49.746 22.7557 50.2364 22.2681 50.8539 22.2681H66.0919C66.6913 22.2681 67.1817 22.7557 67.1817 23.3697Z" fill="white"/>
<path d="M82.5832 23.3697C82.5832 23.9838 82.0928 24.4714 81.4753 24.4714H71.1955C70.578 24.4714 70.0876 23.9838 70.0876 23.3697C70.0876 22.7557 70.578 22.2681 71.1955 22.2681H81.4753C82.0928 22.2681 82.5832 22.7557 82.5832 23.3697Z" fill="white"/>
<path d="M59.3356 29.5282C59.3356 30.1422 59.826 30.6298 60.4435 30.6298H81.4934C82.111 30.6298 82.6013 30.1422 82.6013 29.5282C82.6013 28.9141 82.111 28.4265 81.4934 28.4265H60.4435C59.826 28.4265 59.3356 28.9141 59.3356 29.5282Z" fill="white"/>
<path d="M49.746 29.5282C49.746 30.1422 50.2364 30.6298 50.8539 30.6298H55.3218C55.9393 30.6298 56.4296 30.1422 56.4296 29.5282C56.4296 28.9141 55.9393 28.4265 55.3218 28.4265H50.8539C50.2364 28.4265 49.746 28.9141 49.746 29.5282Z" fill="white"/>
<path d="M67.1817 35.6866C67.1817 36.3007 66.6913 36.7883 66.0738 36.7883H50.8539C50.2364 36.7883 49.746 36.3007 49.746 35.6866C49.746 35.0726 50.2364 34.585 50.8539 34.585H66.0919C66.6913 34.585 67.1817 35.0906 67.1817 35.6866Z" fill="white"/>
<path d="M82.5832 35.6866C82.5832 36.3007 82.0928 36.7883 81.4753 36.7883H71.1955C70.578 36.7883 70.0876 36.3007 70.0876 35.6866C70.0876 35.0726 70.578 34.585 71.1955 34.585H81.4753C82.0928 34.585 82.5832 35.0906 82.5832 35.6866Z" fill="white"/>
<path d="M159.427 16.9043C159.427 26.2233 151.817 33.8086 142.427 33.8086C133.038 33.8086 125.428 26.2414 125.428 16.9043C125.428 7.5672 133.038 0 142.427 0C151.817 0 159.427 7.5672 159.427 16.9043Z" fill="#F46554"/>
<path d="M147.313 10.4027C147.313 10.4027 142.464 16.5251 140.303 19.2342C138.977 17.8616 137.524 16.3626 137.524 16.3626C136.634 15.4415 135.181 15.4235 134.255 16.2904C133.346 17.1572 133.31 18.6201 134.182 19.5231L138.795 24.3091C139.249 24.7786 139.903 25.0495 140.575 25.0134C141.247 24.9773 141.846 24.6703 142.264 24.1465L150.909 13.2563C151.708 12.2629 151.527 10.8181 150.528 10.0415C149.547 9.2469 148.094 9.4275 147.313 10.4027Z" fill="white"/>
<path d="M210.517 91.2037C211.08 91.0593 211.353 91.0412 212.098 91.0412C212.116 91.0412 212.134 91.0412 212.152 91.0412C212.17 91.0412 212.188 91.0412 212.207 91.0412C212.951 91.0412 213.205 91.0593 213.768 91.2037C214.168 91.294 214.495 91.4385 214.858 91.5649C214.858 91.4746 214.876 91.3843 214.876 91.294V89.3797C214.876 87.8807 213.66 86.6526 212.134 86.6526C210.626 86.6526 209.391 87.8626 209.391 89.3797V91.294C209.391 91.3843 209.41 91.4746 209.41 91.5649C209.773 91.4385 210.118 91.294 210.517 91.2037Z" fill="#E46E3D"/>
<path d="M212.188 114.808C212.116 114.808 212.079 114.808 212.079 114.808H207.666V115.133C207.666 117.409 209.664 119.269 212.116 119.269C214.586 119.269 216.565 117.409 216.565 115.133V114.808H212.188Z" fill="#E46E3D"/>
<path d="M223.449 112.731C222.595 111.828 220.961 109.77 220.961 109.77C220.961 109.77 220.961 102.184 220.961 100.017C220.961 96.2968 219.217 92.5944 213.768 91.1857C213.205 91.0413 212.933 91.0232 212.207 91.0232C212.188 91.0232 212.17 91.0232 212.152 91.0232C212.134 91.0232 212.116 91.0232 212.098 91.0232C211.353 91.0232 211.08 91.0413 210.517 91.1857C205.069 92.5764 203.307 96.2968 203.307 100.017C203.307 102.184 203.307 109.77 203.307 109.77C203.307 109.77 201.691 111.828 200.837 112.731C200.002 113.634 200.056 114.826 201.564 114.826H212.098C212.098 114.826 212.134 114.826 212.207 114.826H222.741C224.212 114.808 224.284 113.634 223.449 112.731Z" fill="#FFBC47"/>
<path opacity="0.5" d="M220.961 109.77C220.961 109.77 220.961 102.184 220.961 100.017C220.961 96.7663 219.617 93.4975 215.585 91.7998C216.402 92.5583 219.272 95.448 219.272 98.8613V106.085C219.272 107.693 218.055 110.221 213.678 110.221C213.278 110.221 213.296 110.6 213.678 110.6H221.651C221.251 110.149 220.961 109.77 220.961 109.77Z" fill="#FFBC47"/>
<path d="M213.042 127.234C213.042 127.721 212.642 128.119 212.134 128.119C211.644 128.119 211.244 127.721 211.244 127.234V122.845C211.244 122.358 211.644 121.942 212.134 121.942C212.624 121.942 213.042 122.339 213.042 122.845V127.234Z" fill="#FFBC47"/>
<path d="M221.397 124.019C221.742 124.362 221.742 124.94 221.397 125.283C221.052 125.626 220.47 125.626 220.125 125.283L217.001 122.177C216.656 121.834 216.656 121.256 217.001 120.913C217.346 120.569 217.928 120.569 218.273 120.913L221.397 124.019Z" fill="#FFBC47"/>
<path d="M202.871 124.019C202.526 124.362 202.526 124.94 202.871 125.283C203.216 125.626 203.779 125.626 204.143 125.283L207.266 122.177C207.612 121.834 207.612 121.256 207.266 120.913C206.903 120.569 206.34 120.569 205.995 120.913L202.871 124.019Z" fill="#FFBC47"/>
<path d="M97.0221 105.76V90.8244C97.0221 89.2893 95.6963 87.9709 94.1525 87.9709L69.016 87.9529C68.2532 87.9529 67.5268 88.2599 66.9819 88.8017C66.437 89.3435 66.1464 90.0659 66.1464 90.8244V105.76C66.1464 106.88 66.8003 107.909 67.8173 108.361C68.1988 108.541 68.5983 108.632 69.016 108.632H94.1525C95.7326 108.632 97.0221 107.349 97.0221 105.76ZM94.1525 89.5241C94.2978 89.5241 94.4431 89.5602 94.5884 89.6144C93.1536 90.7883 86.2156 95.8993 81.5479 99.3127C76.8439 95.8632 69.8333 90.6619 68.5438 89.6144C68.6891 89.5602 68.8526 89.5061 69.016 89.5061L94.1525 89.5241ZM68.9979 107.061C68.9616 107.061 68.9252 107.042 68.9071 107.042L76.2809 100.198C76.4989 99.999 76.4989 99.6739 76.2991 99.4572C76.0993 99.2405 75.7724 99.2405 75.5544 99.4391L67.9445 106.501C67.781 106.284 67.672 106.031 67.672 105.76V90.9328C69.7425 92.6124 76.6805 97.7415 81.0394 100.938C81.0757 100.974 81.1302 100.992 81.1665 101.028C81.439 101.137 81.7296 101.119 81.9657 100.938C86.3428 97.7415 93.3352 92.6305 95.4238 90.9328V105.778C95.4238 106.049 95.3149 106.302 95.1696 106.519L87.5596 99.4391C87.3417 99.2405 87.0148 99.2585 86.815 99.4572C86.6152 99.6739 86.6334 99.999 86.8331 100.198L94.207 107.042C94.1706 107.042 94.1525 107.061 94.098 107.061H68.9979Z" fill="#8071F2"/>
<path d="M76.9955 169.268C78.483 167.607 77.9824 164.75 75.8775 162.886C73.7726 161.022 70.8603 160.858 69.3728 162.519C67.8853 164.18 68.3858 167.037 70.4908 168.901C72.5957 170.765 75.508 170.929 76.9955 169.268Z" fill="#D2E2ED"/>
<path d="M54.1957 189C55.3762 191.113 58.3185 192.828 60.7522 192.828L167.673 192.864C167.836 192.864 167.963 192.738 167.963 192.557L167.836 189.74C167.764 188.006 166.256 186.561 164.494 186.543L125.682 186.291H52.6882L54.1957 189Z" fill="#0B2E4E"/>
<path d="M167.673 192.864C167.836 192.864 167.964 192.738 167.964 192.557L167.836 189.74C167.764 188.006 166.256 186.561 164.495 186.543L125.682 186.291V192.846L167.673 192.864Z" fill="#0B3B5E"/>
<path d="M123.248 155.498L126.844 150.856L124.955 139.948L123.248 155.498Z" fill="#DD3B36"/>
<path d="M18.4344 121.942C17.6534 121.166 16.6545 121.166 15.8735 121.942C15.2742 122.538 14.6748 123.134 14.0755 123.73C13.912 123.893 13.7849 123.929 13.5851 123.82C13.2037 123.604 12.786 123.441 12.4045 123.206C10.661 122.123 9.20801 120.714 7.91849 119.143C7.28282 118.366 6.70163 117.517 6.30206 116.578C6.22941 116.38 6.22941 116.271 6.39287 116.109C6.99222 115.531 7.57341 114.935 8.17276 114.339C8.99006 113.508 8.99006 112.551 8.17276 111.72C7.70055 111.251 7.22833 110.781 6.75611 110.311C6.26574 109.824 5.79352 109.354 5.30314 108.867C4.50401 108.09 3.52325 108.09 2.72412 108.867C2.12476 109.463 1.54357 110.077 0.926061 110.655C0.363034 111.196 0.0724395 111.847 -0.000209184 112.623C-0.09102 113.869 0.217737 115.061 0.653629 116.199C1.54357 118.583 2.90574 120.678 4.54033 122.628C6.75611 125.247 9.40779 127.324 12.4954 128.823C13.8757 129.491 15.3287 130.015 16.9088 130.087C17.9985 130.141 18.9248 129.871 19.6876 129.04C20.1961 128.462 20.7773 127.956 21.3222 127.396C22.1213 126.584 22.1395 125.608 21.3403 124.796C20.3596 123.857 19.397 122.899 18.4344 121.942Z" fill="#8071F2"/>
</g>
<defs>
<linearGradient id="paint0_linear_4779_10079" x1="148.357" y1="108.053" x2="149.704" y2="197.451" gradientUnits="userSpaceOnUse">
<stop stop-color="#F06465"/>
<stop offset="1" stop-color="#F0423B"/>
</linearGradient>
<linearGradient id="paint1_linear_4779_10079" x1="179.61" y1="107.583" x2="180.957" y2="196.981" gradientUnits="userSpaceOnUse">
<stop stop-color="#F06465"/>
<stop offset="1" stop-color="#F0423B"/>
</linearGradient>
<clipPath id="clip0_4779_10079">
<rect width="252" height="197" fill="white"/>
</clipPath>
</defs>
</svg>
