<?xml version="1.0" standalone="no"?>
<!DOCTYPE svg PUBLIC "-//W3C//DTD SVG 20010904//EN"
 "http://www.w3.org/TR/2001/REC-SVG-20010904/DTD/svg10.dtd">
<svg version="1.0" xmlns="http://www.w3.org/2000/svg"
 width="512.000000pt" height="512.000000pt" viewBox="0 0 512.000000 512.000000"
 preserveAspectRatio="xMidYMid meet">
<metadata>
Created by potrace 1.14, written by Peter Selinger 2001-2017
</metadata>
<g transform="translate(0.000000,512.000000) scale(0.100000,-0.100000)"
fill="#000000" stroke="none">
<path d="M2448 4719 c-118 -28 -234 -122 -307 -249 -24 -41 -69 -120 -101
-175 -71 -123 -682 -1181 -708 -1227 -30 -51 -120 -208 -282 -488 -81 -140
-157 -271 -167 -290 -11 -19 -62 -107 -113 -195 -51 -88 -103 -178 -115 -200
-40 -70 -305 -529 -314 -545 -88 -143 -186 -328 -200 -380 -45 -159 3 -331
125 -446 144 -137 343 -166 523 -75 106 54 145 104 303 381 31 54 117 203 128
220 7 13 56 98 277 481 12 20 56 96 97 168 42 72 110 191 152 264 42 72 118
204 169 292 51 88 102 176 113 195 11 19 43 76 72 125 29 50 62 106 73 125 10
19 70 123 132 230 98 170 184 320 229 398 14 27 27 30 38 10 4 -7 26 -43 48
-81 22 -37 40 -70 40 -73 0 -2 8 -17 19 -32 10 -15 141 -241 291 -502 150
-261 320 -556 378 -655 58 -99 116 -200 130 -225 14 -25 81 -142 150 -260 69
-118 134 -231 145 -250 10 -19 54 -96 97 -170 43 -74 86 -151 97 -170 36 -63
113 -195 123 -210 6 -8 13 -22 17 -30 41 -94 134 -190 227 -235 255 -124 549
4 634 275 27 85 24 211 -7 289 -12 29 -131 243 -265 475 -348 602 -346 598
-346 607 0 5 -4 9 -10 9 -5 0 -10 4 -10 10 0 5 -38 74 -84 153 -47 79 -96 164
-110 189 -14 25 -88 154 -165 287 -78 134 -141 244 -141 246 0 2 -28 50 -62
107 -33 56 -71 121 -84 143 -251 446 -764 1319 -792 1348 -92 96 -209 147
-332 146 -41 -1 -92 -5 -112 -10z"/>
<path d="M2425 2016 c-221 -56 -370 -256 -361 -485 9 -217 150 -390 362 -445
280 -72 565 132 590 422 12 134 -35 270 -127 367 -47 50 -149 124 -149 109 0
-4 -7 -1 -14 6 -41 33 -213 48 -301 26z"/>
</g>
</svg>
